<svg xmlns="http://www.w3.org/2000/svg" viewBox="0 0 1024 1024">
  <defs>
    <filter id="a" width="1.058" height="1.07" x="-.029" y="-.029" color-interpolation-filters="sRGB">
      <feFlood flood-color="#000" flood-opacity=".3" result="flood"/>
      <feComposite in="flood" in2="SourceGraphic" operator="in" result="composite1"/>
      <feGaussianBlur in="composite1" result="blur" stdDeviation="10"/>
      <feOffset dy="10" result="offset"/>
      <feComposite in="SourceGraphic" in2="offset" result="composite2"/>
    </filter>
  </defs>
  <g filter="url(#a)">
    <path fill="#f60" d="M100 724V300c0-115 70-200 200.03-200L724 99.995c130 .005 200 85.006 200 200v424c0 115-70 200-200 200H300.03c-130.03 0-200.03-84.999-200.03-200z"/>
    <path fill="#fff" d="m234.377 159.573-7.228 26.782c35.96 9.712 68.305 23.115 97.186 39.636-31.58 23.392-52.405 63.385-52.405 108.816 0 20.176 4.111 39.278 11.44 56.335-32.387 30.227-51.956 73.32-51.956 129.879 0 104.907 63.611 195.511 155.624 238.972l-45.581 104.432H371.7l40.957-93.829a283.265 283.265 0 0 0 13.55 4.483 172.491 172.491 0 0 0 16.132 11.112l-19.34 78.236h28.616l16.246-65.783c10.176 3.78 20.545 6.27 31.02 7.432v58.349h27.741v-58.414c11.684-1.345 23.229-4.358 34.516-8.989l16.642 67.403h28.572l-19.949-80.77a174.237 174.237 0 0 0 14.896-10.899 286.016 286.016 0 0 0 14.156-5.13l42.242 96.798h30.243l-47.2-108.148c87.907-44.772 148.04-133.259 148.04-235.257 0-55.087-18.568-97.397-49.455-127.493 7.99-17.657 12.52-37.592 12.52-58.717 0-45.27-20.673-85.137-52.058-108.564 29.148-16.823 61.525-30.294 97.064-39.891l-7.228-26.78c-38.976 10.526-74.529 25.595-106.495 44.527-50.59-27.963-114.57-41.802-178.428-41.728-60.718.071-121.308 12.727-170.177 37.771-30.022-16.912-63.378-30.64-100.143-40.57Zm270.332 31.764c54.095-.066 108.283 9.951 151.518 30.201-66.957 47.336-115.65 113.1-144.195 189.673-28.686-77.383-78.133-145.246-149.269-193.576 41.273-17.432 91.564-26.242 141.947-26.304ZM380.618 292.819c28.794 0 52.438 23.634 52.438 52.424 0 28.795-23.644 52.43-52.438 52.43-28.795 0-52.442-23.64-52.442-52.434 0-28.792 23.647-52.424 52.442-52.424zm266.334 0c28.795 0 52.439 23.634 52.439 52.424 0 28.795-23.644 52.43-52.439 52.43-28.797 0-52.443-23.634-52.443-52.428 0-28.792 23.644-52.424 52.439-52.424zM483.123 412.584c6.014 15.357 11.166 31.17 15.472 47.367l13.403 50.411 13.403-50.411c4.297-16.16 9.451-31.87 15.443-47.08 21.359 31.866 55.431 52.521 93.859 52.521 21.432 0 41.505-6.45 58.788-17.657-5.942 105.16-28.112 185.126-58.39 239.583-35.57 63.977-80.67 92.43-123.99 91.78-43.317-.65-88.768-30.682-124.386-95.102-30.326-54.849-52.483-134.344-58.411-237.525 17.717 12.002 38.512 18.918 60.76 18.918 38.542 0 72.706-20.78 94.05-52.81zm-185.927 3.187c.643.905 1.283 1.81 1.945 2.695 3.213 120.722 27.295 213.816 63.308 278.954 5.425 9.81 11.151 18.974 17.125 27.533-72.313-41.948-120.42-117.693-120.42-203.928 0-47.535 13.693-80.868 38.044-105.253zm427.884 2.12c23.05 24.187 35.958 56.965 35.958 103.134 0 83.667-45.294 157.454-114.032 200.083a305.949 305.949 0 0 0 12.341-20.307c35.864-64.506 59.857-157.554 63.27-279.742.832-1.05 1.666-2.093 2.465-3.169zm-352.504 87.647c-5.57 9.296-9.048 21.567-9.048 34.494 0 29.782 17.952 53.307 39.808 53.307 18.597 0 34.663-17.195 38.902-40.765-6.964 6.083-15.543 9.41-24.425 9.41-23.718 0-43.671-24.662-45.237-56.446zm275.94 3.677c-1.567 31.782-21.515 56.446-45.235 56.446-8.883 0-17.46-3.328-24.428-9.41 4.242 23.57 20.305 40.766 38.902 40.766 21.857 0 38.903-23.525 38.903-53.308 0-12.928-2.571-25.198-8.14-34.494h-.003zm-102.012 42.999c-5.21 19.434-21.236 34.405-36.409 34.405-14.819 0-30.59-14.927-35.538-33.406-1.206 5.042-2.6 10.434-2.6 16.024 0 28.534 17.203 51.073 38.142 51.073 20.94 0 38.141-22.539 38.141-51.073 0-5.917-.386-11.726-1.733-17.025h-.003zm52.008 99.008c-5.098 24.568-21.088 43.063-40.743 43.063-12.23 0-23.38-6.828-31.205-18.028 1.096 27.2 17.908 49.073 38.141 49.073 20.939 0 38.14-23.544 38.14-52.077 0-8.025-1.934-15.254-4.334-22.032zm-171.633 2c-1.92 6.186-2.6 12.898-2.6 20.033 0 28.533 17.202 52.075 38.14 52.075 20.235 0 36.179-21.874 37.274-49.074-7.825 11.198-18.974 18.027-31.206 18.027-19.17 0-36.088-17.417-41.607-41.063z"/>
    <path fill="#000" d="M379.738 292.696c-20.779.062-40.323 13.996-47.915 33.217-3.912 8.94-4.17 19.072-2.937 28.613 3.568 20.58 20.464 37.744 40.804 42.135 13.223 2.99 27.426.13 38.868-7.025 12.255-7.89 21.275-20.884 23.904-35.268 1.253-10.532.79-21.652-4.25-31.223-8.245-17.749-26.814-30.227-46.473-30.44a49.81 49.81 0 0 0-2-.009zM646.014 292.668c-21.063.05-40.727 14.434-48.146 33.98-3.913 8.402-3.213 17.84-2.848 26.833 3.168 20.04 18.92 37.513 38.61 42.598 13.851 3.878 29.113 1.153 41.233-6.443 19.767-12.29 30.118-38.774 21.917-60.928-6.5-19.402-24.863-34.295-45.383-35.834a50.881 50.881 0 0 0-5.383-.206z"/>
  </g>
</svg>
